<svg xmlns="http://www.w3.org/2000/svg" width="400" height="400" fill="none" viewBox="0 0 400 400">
  <g clip-path="url(#a)">
    <rect width="400" height="400" fill="url(#b)" rx="200"/>
    <path fill="#BFDBFE" d="M22 98.508C81.521 64.375 123.848.488 138.716-93.134l10.389.034C137.859 1.98 95.155 51.188 76.855 70.796c45.168-19.162 67.768-39.113 93.537-72.034l5.797 6.205c-23.334 32.106-43.425 50.993-86.803 70.876C146.015 59.22 204.77 57.983 260.65 63.886l-1.087 7.864c-56.95-8.41-114.283-.373-169.474 12.677 80.958 5.628 125.714 23.654 171.51 64.926l-4.667 6.421C187.16 96.544 107.992 91.637 22 98.508Z"/>
    <path fill="#BFDBFE" d="M192.255 42.565c2.966 1.195 6.337-.235 7.528-3.193 1.192-2.959-.247-6.325-3.213-7.52-2.966-1.195-6.337.235-7.528 3.194-1.192 2.958.247 6.325 3.213 7.52ZM60.054 45.352c2.966 1.195 6.336-.235 7.528-3.194 1.191-2.958-.247-6.325-3.213-7.52-2.967-1.194-6.337.236-7.529 3.194-1.191 2.959.247 6.326 3.214 7.52Zm123.824 90.337c-2.184 5.424-8.364 8.045-13.802 5.855-5.438-2.19-8.075-8.362-5.891-13.786 2.185-5.424 8.364-8.045 13.802-5.855 5.438 2.19 8.075 8.362 5.891 13.786ZM160.199-84.482c-3.575 8.875-13.686 13.165-22.585 9.581-8.898-3.584-13.214-13.684-9.639-22.56 3.574-8.875 13.686-13.164 22.584-9.58 8.898 3.583 13.214 13.684 9.64 22.559Zm30.679 89.139c-3.575 8.875-13.686 13.165-22.585 9.581-8.898-3.584-13.214-13.684-9.639-22.56 3.574-8.875 13.686-13.164 22.584-9.58 8.898 3.584 13.214 13.684 9.64 22.559Zm64.208 79.815c9.205 3.708 19.564-.482 23.139-9.357 3.574-8.875-.99-19.076-10.195-22.783-9.205-3.707-19.565.482-23.139 9.358-3.575 8.875.99 19.075 10.195 22.782Zm24.049 78.168c-3.575 8.876-13.686 13.165-22.584 9.582-8.899-3.584-13.215-13.685-9.64-22.56 3.574-8.875 13.686-13.165 22.584-9.581 8.899 3.584 13.215 13.684 9.64 22.559Z"/>
    <path fill="#DDD6FE" d="M283.49 386.777c-2.986 2.283-6.075-.32-7.824-2.787l-7.238-8.298c-2.376 3.68-4.041 7.908-7.113 11.063-3.046 3.388-8.538 1.048-9.181-3.17-4.927-17.779-9.889-35.549-14.795-53.335-.363-5.177 5.756-4.094 8.497-2.03 15.707 6.839 31.478 13.534 47.165 20.417 5.209 2.329 2.973 9.439-1.687 10.873-3.092 1.254-6.143 2.607-9.201 3.941 3.165 3.766 6.527 7.377 9.566 11.243 1.992 3.377-1.346 6.18-3.622 8.199a66.214 66.214 0 0 1-4.567 3.884Zm-2.587-3.909 6.733-5.96c-3.915-4.587-8.304-8.797-11.752-13.769.942-4.853 8.693-4.62 12.403-7.368 3.558-.7 3.895-3.418.408-3.982l-46.089-19.914c4.801 17.092 10.024 34.079 14.284 51.315 3.084.683 4.34-5.771 6.281-8.089 1.314-2.805 4.404-8.717 7.263-4.242 3.488 4.003 6.986 8.002 10.469 12.009Zm-69.275-94.119c2.282 3.994-4.604 7.009-5.903 2.585-2.05-3.843-4.352-7.563-6.242-11.484-1.139-4.071 5.242-5.717 6.283-1.672 1.934 3.511 4.027 7.119 5.862 10.571Zm-11.953 38.431c3.833-2.239 6.697 4.711 2.508 6.081-3.727 2.13-7.333 4.523-11.138 6.484-3.948 1.174-5.544-5.405-1.621-6.479l10.251-6.086Zm-1.65-21.685c4.349 1.167 1.545 8.31-2.405 6.132-4.064-1.21-8.063-2.123-12.064-3.513-3.538-2.023-.409-7.829 3.078-5.789 3.798 1.055 7.593 2.127 11.391 3.17Zm34.186-15.834c-.796 5.102-8.572 1.895-5.943-2.474 1.155-4.195 2.036-8.49 3.37-12.619 1.966-3.648 7.564-.259 5.596 3.34l-3.023 11.753Z"/>
    <path fill="url(#c)" d="M-1 116h407v169H-1z"/>
    <path fill="#3B82F6" d="M90.988 153.455h-57.65v17.772h57.65v-17.772Zm-57.651 38.681h48.217v16.728H54.301v38.681H33.337v-55.409Zm72.326-38.681v94.09h20.964v-60.636l37.734 60.636h20.964v-94.09h-20.964v61.681l-37.734-61.681h-20.964Zm94.337 0h57.651v17.772H200v-17.772Zm0 38.681h34.59v16.728H200v-16.728Zm57.651 37.637H200v17.772h57.651v-17.772Z"/>
    <path fill="#8039F5" d="M275.47 153.455h20.964v17.772H275.47v-17.772Zm0 42.863h20.964v16.727l-9.434 34.5h-14.675l9.434-34.5h-6.289v-16.727Zm35.638 16.727h13.11l19.384 34.5h23.061l-21.701-36.131c.499-.168.988-.346 1.466-.535 4.383-1.695 7.916-3.97 10.6-6.824 2.772-2.944 4.785-6.156 6.037-9.635 1.342-3.569 2.013-7.182 2.013-10.84 0-5.352-1.252-10.259-3.757-14.72-2.504-4.549-6.306-8.163-11.404-10.839-5.009-2.766-11.315-4.566-18.918-4.566h-19.891v17.772h18.818c4.83 0 8.363 1.023 10.599 3.254 2.325 2.23 3.488 5.263 3.488 9.099 0 2.587-.536 4.862-1.61 6.825-.984 1.874-2.504 3.301-4.561 4.282-2.058.982-4.696 1.631-7.916 1.631h-18.818v16.727Z"/>
  </g>
  <defs>
    <radialGradient id="b" cx="0" cy="0" r="1" gradientTransform="rotate(90 0 200) scale(200)" gradientUnits="userSpaceOnUse">
      <stop stop-color="#F0F9FF"/>
      <stop offset="1" stop-color="#F5F3FF"/>
    </radialGradient>
    <linearGradient id="c" x1="202.5" x2="202.5" y1="116" y2="285" gradientUnits="userSpaceOnUse">
      <stop stop-color="#fff" stop-opacity="0"/>
      <stop offset=".33" stop-color="#fff"/>
      <stop offset=".67" stop-color="#fff"/>
      <stop offset="1" stop-color="#fff" stop-opacity="0"/>
    </linearGradient>
    <clipPath id="a">
      <rect width="400" height="400" fill="#fff" rx="200"/>
    </clipPath>
  </defs>
</svg>
