<svg xmlns="http://www.w3.org/2000/svg" width="784" height="258" fill="none" viewBox="0 0 784 258">
  <g class="Logo FNEIR Rect">
    <path fill="#fff" d="M0 0h784v258H0z"/>
    <g class="France">
      <path fill="#172554" d="M125.824 97.117c-13.234-2.086-26.126-6.084-38.521-13.343a2 2 0 0 0-2.894 1.054c-5.064 14.191-12.475 24.472-22.004 31.241-9.53 6.769-21.343 10.143-35.418 10.232a2 2 0 0 0-1.606 3.174c5.02 6.924 5.652 13.759 3.834 20.722a1.999 1.999 0 0 0 1.83 2.502c9.96.525 17.587 3.332 23.317 7.512 5.733 4.182 9.675 9.818 12.137 16.168 4.949 12.763 3.864 28.299-.651 40.005a2 2 0 0 0 1.051 2.546c10.063 4.49 17.774 7.187 25.698 8.158 7.937.972 15.939.196 26.569-2.026a1.998 1.998 0 0 0 1.296-.914c9.092-14.848 24.301-20.943 47.758-19.847a1.999 1.999 0 0 0 1.525-.601c5.433-5.568 11.219-12.096 8.611-22.484-.1-.4-.321-.758-.633-1.027-11.413-9.851-16.474-23.161-17.449-40.259-1.314.299-2.631.615-3.95.948 1.105 17.268 6.324 31.324 18.292 41.908 1.617 7.437-2.11 12.286-7.113 17.481-23.421-.921-39.929 5.244-49.989 21.052-10 2.043-17.309 2.671-24.43 1.798-6.905-.846-13.764-3.117-22.847-7.085 4.248-12.225 5.11-27.898-.008-41.099-2.698-6.958-7.072-13.257-13.51-17.953-5.957-4.346-13.59-7.253-23.107-8.108 1.17-6.191.516-12.445-3.006-18.664 13.188-.608 24.631-4.141 34.115-10.878 9.808-6.967 17.372-17.254 22.628-30.925 12.265 6.814 24.949 10.628 37.839 12.661.228-1.308.441-2.625.636-3.95Z" class="France outline"/>
      <path fill="#172554" d="M142.538 196.543c-1.781 1.366-3.624-.191-4.667-1.667l-4.317-4.962c-1.418 2.201-2.411 4.73-4.243 6.617-1.817 2.025-5.093.626-5.477-1.896-2.939-10.633-5.899-21.261-8.825-31.897-.216-3.096 3.434-2.448 5.068-1.214 9.37 4.09 18.777 8.094 28.134 12.21 3.107 1.393 1.774 5.645-1.006 6.503-1.844.75-3.664 1.559-5.489 2.356 1.888 2.252 3.894 4.412 5.707 6.724 1.188 2.02-.804 3.696-2.161 4.903a39.327 39.327 0 0 1-2.724 2.323Zm-1.543-2.337 4.016-3.564c-2.336-2.744-4.953-5.262-7.01-8.235.562-2.903 5.185-2.763 7.398-4.406 2.123-.419 2.324-2.045.243-2.382l-27.491-11.909c2.864 10.222 5.979 20.38 8.52 30.688 1.84.408 2.589-3.451 3.747-4.837.783-1.678 2.627-5.214 4.332-2.537 2.081 2.394 4.167 4.785 6.245 7.182Z" class="Cursor"/>
      <path fill="#172554" d="M99.673 137.918c1.361 2.389-2.746 4.193-3.521 1.547-1.223-2.299-2.596-4.523-3.724-6.868-.679-2.435 3.127-3.42 3.748-1 1.154 2.1 2.403 4.257 3.497 6.321Zm-7.13 22.984c2.286-1.339 3.995 2.817 1.496 3.637-2.223 1.273-4.374 2.704-6.644 3.877-2.354.703-3.307-3.232-.967-3.874l6.115-3.64Zm-.984-12.968c2.594.697.922 4.969-1.435 3.667-2.424-.724-4.81-1.27-7.196-2.101-2.11-1.21-.244-4.682 1.836-3.462 2.265.63 4.53 1.271 6.795 1.896Zm20.391-9.47c-.474 3.051-5.113 1.133-3.544-1.479.689-2.509 1.214-5.078 2.01-7.548 1.172-2.181 4.511-.154 3.338 1.998l-1.804 7.029Z" class="tilt"/>
      <g class="Explosion">
        <path fill="#3B82F6" d="M109 154.5c22-28 29.977-67 19-115l5-2c13 48 2 80-3 93 18-18 25-32 31.013-52.865L165 79.5c-5 20-11 33-28 51 24-19 52-31 80-39l1 4c-29 7-55 22-79 39 40-13 65-13 95-2l-1 4c-45-15-84-2-124 18Z" class="Tree"/>
        <path fill="#4C88FF" d="M180 94.5a3 3 0 1 0 0-6 3 3 0 0 0 0 6Zm-63 27a3 3 0 1 0 0-6 3 3 0 0 0 0 6Zm77 19.5a5.5 5.5 0 1 1-11 0 5.5 5.5 0 1 1 11 0Z" class="Tree Particles"/>
        <path fill="#4C88FF" d="M140 39.5a9 9 0 0 1-9 9 9 9 0 0 1-9-9 9 9 0 0 1 9-9 9 9 0 0 1 9 9Zm32 37a9 9 0 0 1-9 9 9 9 0 0 1-9-9 9 9 0 0 1 9-9 9 9 0 0 1 9 9Zm46.31 26c5.142 0 9.31-4.03 9.31-9s-4.168-9-9.31-9-9.31 4.03-9.31 9 4.168 9 9.31 9Zm26.69 33a9 9 0 1 1-18 0 9 9 0 0 1 18 0Z" class="Tree Leafs"/>
      </g>
    </g>
    <g class="FNEIR and Text">
      <g class="FNEIR">
        <g class="F">
          <path fill="#3B82F6" d="M331 32h-55v17h55V32Zm-55 37h46v16h-26v37h-20V69Z" class="F"/>
        </g>
        <g class="N">
          <path fill="#3B82F6" d="M345 32v90h20V64l36 58h20V32h-20v59l-36-59h-20Z" class="N"/>
        </g>
        <g class="E">
          <path fill="#3B82F6" d="M435 32h55v17h-55V32Zm0 37h33v16h-33V69Zm55 36h-55v17h55v-17Z" class="E"/>
        </g>
        <g class="I">
          <path fill="#8039F5" d="M507 32h20v17h-20V32Zm0 41h20v16l-9 33h-14l9-33h-6V73Z" class="I"/>
        </g>
        <g class="R">
          <path fill="#8039F5" d="M541 89h12.507L572 122h22l-20.703-34.56c.476-.16.943-.331 1.399-.512 4.181-1.621 7.552-3.797 10.112-6.528 2.645-2.816 4.565-5.888 5.76-9.216 1.28-3.413 1.92-6.87 1.92-10.368 0-5.12-1.195-9.813-3.584-14.08-2.389-4.352-6.016-7.808-10.88-10.368C573.245 33.723 567.229 32 559.976 32H541v17h17.952c4.608 0 7.979.979 10.112 3.112 2.219 2.133 3.328 5.035 3.328 8.704 0 2.475-.512 4.65-1.536 6.528-.939 1.792-2.389 3.157-4.352 4.096-1.963.939-4.48 1.56-7.552 1.56H541v16Z" class="R"/>
        </g>
      </g>
      <g class="Long text">
        <g class="Fédération Nationale des Étudiants en Informatique et Réseaux">
          <path fill="#172554" d="M599.016 176h10.296v-3.719h-6.046v-6.328h5.609v-3.687h-5.609v-5.438h6.046v-3.672h-10.296V176Zm3.234-25.094v.422h2.922a39.628 39.628 0 0 0 2.875-2.625c.989-1 1.609-1.724 1.859-2.172v-.328h-4.968c-.24.542-.641 1.323-1.204 2.344-.562 1.021-1.057 1.807-1.484 2.359Z"/>
          <path fill="#172554" fill-rule="evenodd" d="M643.562 176.312c-1.604 0-2.869-.791-3.796-2.374-.927-1.584-1.391-3.787-1.391-6.61 0-2.833.453-5.052 1.359-6.656.907-1.604 2.157-2.406 3.75-2.406.792 0 1.474.198 2.047.593.584.386 1.12 1.042 1.61 1.969h.25c-.125-1.583-.188-2.693-.188-3.328v-5.812h4.156V176h-3.093l-.704-2.266h-.14c-.886 1.719-2.172 2.578-3.86 2.578Zm1.344-3.515c.771 0 1.334-.349 1.688-1.047.354-.708.547-1.99.578-3.844v-.547c0-2.02-.182-3.442-.547-4.265-.354-.823-.943-1.235-1.766-1.235-.77 0-1.333.474-1.687 1.422-.344.938-.516 2.308-.516 4.11 0 1.802.177 3.156.532 4.062.354.896.927 1.344 1.718 1.344Z" clip-rule="evenodd"/>
          <path fill="#172554" d="M654.891 176h4.156v-17.406h-4.156V176Zm.421-23.578c-.395.396-.593.937-.593 1.625 0 .708.208 1.26.625 1.656.416.386.968.578 1.656.578.656 0 1.193-.192 1.609-.578.417-.396.625-.948.625-1.656 0-.688-.203-1.229-.609-1.625-.406-.406-.948-.61-1.625-.61-.719 0-1.281.204-1.688.61Zm44.5 20.375c.584 0 1.214-.146 1.891-.438v3.25c-.677.469-1.693.703-3.047.703-1.51 0-2.63-.447-3.359-1.343-.729-.907-1.094-2.261-1.094-4.063v-9.015h-1.687v-1.86l2.172-1.5 1.062-3.687h2.656v3.75h3.156v3.297h-3.156v9.156c0 1.167.469 1.75 1.406 1.75Zm47.594-7.172V176h4.188v-11.359c0-2.084-.396-3.667-1.188-4.75-.781-1.084-1.963-1.625-3.547-1.625-.937 0-1.755.229-2.453.687-.698.448-1.234 1.073-1.609 1.875h-.266l-.5-2.234h-3.297V176h4.157v-8.359c0-2.115.208-3.615.625-4.5.416-.896 1.073-1.344 1.968-1.344.677 0 1.167.323 1.469.969.302.645.453 1.599.453 2.859Z"/>
          <path fill="#172554" fill-rule="evenodd" d="M500.625 218c1.26 1.542 2.979 2.312 5.156 2.312 1.865 0 3.464-.401 4.797-1.203v-3.421c-1.417.843-2.802 1.265-4.156 1.265-1.063 0-1.896-.375-2.5-1.125-.604-.76-.922-1.917-.953-3.469h8.359v-2.218c0-2.49-.547-4.422-1.64-5.797-1.094-1.386-2.589-2.078-4.485-2.078-2.031 0-3.614.807-4.75 2.422-1.135 1.614-1.703 3.859-1.703 6.734 0 2.833.625 5.026 1.875 6.578Zm3.078-11.578c.386-.636.875-.953 1.469-.953.635 0 1.135.328 1.5.984.364.656.557 1.62.578 2.891h-4.219c.063-1.323.287-2.297.672-2.922Z" clip-rule="evenodd"/>
          <path fill="#172554" d="M503.031 200.188v.421h2.922a39.42 39.42 0 0 0 2.875-2.625c.99-1 1.61-1.724 1.86-2.172v-.328h-4.969c-.24.542-.641 1.323-1.203 2.344-.563 1.021-1.058 1.807-1.485 2.36Z"/>
          <path fill="#172554" fill-rule="evenodd" d="m549.297 220-.828-2.375h-.094c-.615 1.021-1.25 1.724-1.906 2.109-.657.386-1.485.578-2.485.578-1.281 0-2.291-.479-3.031-1.437-.729-.958-1.094-2.292-1.094-4 0-1.833.5-3.193 1.5-4.078 1.011-.896 2.516-1.391 4.516-1.485l2.313-.093v-1.25c0-1.625-.704-2.438-2.11-2.438-1.042 0-2.239.407-3.594 1.219l-1.437-2.875a10.348 10.348 0 0 1 5.641-1.641c1.843 0 3.244.532 4.203 1.594.968 1.052 1.453 2.547 1.453 4.484V220h-3.047Zm-3.609-2.938c.76 0 1.364-.338 1.812-1.015.458-.688.688-1.599.688-2.735v-1.468l-1.282.062c-.948.052-1.646.323-2.094.813-.437.489-.656 1.219-.656 2.187 0 1.438.511 2.156 1.532 2.156Z" clip-rule="evenodd"/>
          <path fill="#172554" d="m564.594 217.766.515 2.234h3.329v-17.406h-4.204v8.344c0 2.114-.208 3.619-.625 4.515-.406.896-1.057 1.344-1.953 1.344-.677 0-1.166-.323-1.468-.969-.303-.646-.454-1.604-.454-2.875v-10.359h-4.203v11.359c0 2.115.401 3.703 1.203 4.766.802 1.062 1.985 1.593 3.547 1.593.917 0 1.729-.223 2.438-.671a4.525 4.525 0 0 0 1.656-1.875h.219Zm5.984-15.172 4.344 8.515-4.547 8.891h4.328l2.297-5.562 2.469 5.562h4.343l-4.562-8.891 4.375-8.515h-4.281l-2.141 5.312-2.312-5.312h-4.313Z"/>
          <path fill="#172554" fill-rule="evenodd" d="M527.312 218c1.261 1.542 2.98 2.312 5.157 2.312 1.864 0 3.463-.401 4.797-1.203v-3.421c-1.417.843-2.802 1.265-4.157 1.265-1.062 0-1.895-.375-2.5-1.125-.604-.76-.921-1.917-.953-3.469h8.36v-2.218c0-2.49-.547-4.422-1.641-5.797-1.094-1.386-2.589-2.078-4.484-2.078-2.032 0-3.615.807-4.75 2.422-1.136 1.614-1.703 3.859-1.703 6.734 0 2.833.624 5.026 1.874 6.578Zm3.079-11.578c.385-.636.875-.953 1.468-.953.636 0 1.136.328 1.5.984.365.656.558 1.62.579 2.891h-4.219c.062-1.323.286-2.297.672-2.922Z" clip-rule="evenodd"/>
          <path fill="#172554" d="M523.422 214.906c0 1.698-.5 3.026-1.5 3.985-.99.948-2.453 1.421-4.391 1.421-1.719 0-3.14-.338-4.265-1.015v-3.609a8.176 8.176 0 0 0 2 .984c.77.26 1.448.39 2.031.39.646 0 1.135-.156 1.469-.468.343-.323.515-.745.515-1.266 0-.531-.177-.995-.531-1.39-.354-.396-1.005-.881-1.953-1.454-1.261-.75-2.167-1.546-2.719-2.39-.542-.854-.812-1.86-.812-3.016 0-1.479.505-2.651 1.515-3.516 1.021-.864 2.417-1.296 4.188-1.296 1.541 0 2.995.406 4.359 1.218l-1.359 2.985c-1.115-.604-2.094-.907-2.938-.907-.531 0-.932.141-1.203.422-.26.282-.39.625-.39 1.032 0 .468.161.885.484 1.25.333.364.948.817 1.844 1.359 1.083.656 1.843 1.214 2.281 1.672.437.458.776.979 1.015 1.562.24.584.36 1.266.36 2.047Z"/>
          <path fill="#172554" fill-rule="evenodd" d="M487.859 211.109V220h-4.25v-22.844h5.563c2.354 0 4.088.558 5.203 1.672 1.125 1.115 1.687 2.818 1.687 5.11 0 2.885-.973 4.901-2.921 6.046l4.39 10.016h-4.547l-3.609-8.891h-1.516Zm0-3.656h1.094c1 0 1.719-.281 2.156-.844.438-.573.657-1.421.657-2.547 0-1.166-.235-1.994-.704-2.484-.458-.5-1.171-.75-2.14-.75h-1.063v6.625Z" clip-rule="evenodd"/>
          <path fill="#172554" d="M473.016 216.359c-.677.292-1.308.438-1.891.438-.937 0-1.406-.583-1.406-1.75v-9.156h3.156v-3.297h-3.156v-3.75h-2.657L466 202.531l-2.172 1.5v1.86h1.688v9.015c0 1.802.364 3.156 1.093 4.063.73.896 1.849 1.343 3.36 1.343 1.354 0 2.37-.234 3.047-.703v-3.25Z"/>
          <path fill="#172554" fill-rule="evenodd" d="M456.781 220.312c-2.177 0-3.896-.77-5.156-2.312-1.25-1.552-1.875-3.745-1.875-6.578 0-2.875.568-5.12 1.703-6.734 1.136-1.615 2.719-2.422 4.75-2.422 1.896 0 3.391.692 4.485 2.078 1.093 1.375 1.64 3.307 1.64 5.797v2.218h-8.359c.031 1.552.349 2.709.953 3.469.604.75 1.437 1.125 2.5 1.125 1.354 0 2.739-.422 4.156-1.265v3.421c-1.333.802-2.932 1.203-4.797 1.203Zm-.609-14.843c-.594 0-1.083.317-1.469.953-.385.625-.609 1.599-.672 2.922h4.219c-.021-1.271-.214-2.235-.578-2.891-.365-.656-.865-.984-1.5-.984ZM429 218c1.26 1.542 2.979 2.312 5.156 2.312 1.865 0 3.464-.401 4.797-1.203v-3.421c-1.417.843-2.802 1.265-4.156 1.265-1.063 0-1.896-.375-2.5-1.125-.604-.76-.922-1.917-.953-3.469h8.359v-2.218c0-2.49-.547-4.422-1.641-5.797-1.093-1.386-2.588-2.078-4.484-2.078-2.031 0-3.614.807-4.75 2.422-1.135 1.614-1.703 3.859-1.703 6.734 0 2.833.625 5.026 1.875 6.578Zm3.078-11.578c.386-.636.875-.953 1.469-.953.635 0 1.135.328 1.5.984.364.656.557 1.62.578 2.891h-4.219c.063-1.323.287-2.297.672-2.922Z" clip-rule="evenodd"/>
          <path fill="#172554" d="m420.922 220-.516-2.234h-.218a4.534 4.534 0 0 1-1.657 1.875c-.708.448-1.521.671-2.437.671-1.563 0-2.745-.531-3.547-1.593-.802-1.063-1.203-2.651-1.203-4.766v-11.359h4.203v10.359c0 1.271.151 2.229.453 2.875.302.646.792.969 1.469.969.896 0 1.547-.448 1.953-1.344.417-.896.625-2.401.625-4.515v-8.344h4.203V220h-3.328Z"/>
          <path fill="#172554" fill-rule="evenodd" d="M396.406 217.938c.917 1.583 2.188 2.374 3.813 2.374.802 0 1.505-.203 2.109-.609.604-.417 1.125-1.073 1.563-1.969h.156c-.125 1.375-.188 2.25-.188 2.625v7.329h4.157v-25.094H404.5l-.453 2.234h-.219c-.479-.917-1.016-1.573-1.609-1.969-.594-.395-1.297-.593-2.11-.593-1.583 0-2.828.802-3.734 2.406-.896 1.594-1.344 3.812-1.344 6.656 0 2.823.459 5.026 1.375 6.61Zm6.844-2.235c-.354.75-.943 1.125-1.766 1.125-.75 0-1.302-.443-1.656-1.328-.344-.896-.516-2.266-.516-4.109 0-3.688.724-5.532 2.172-5.532.834 0 1.433.438 1.797 1.313.365.875.547 2.271.547 4.187v.579c-.021 1.75-.213 3.005-.578 3.765Z" clip-rule="evenodd"/>
          <path fill="#172554" d="M392.078 220h-4.156v-17.406h4.156V220Zm-4.328-21.953c0-.688.198-1.229.594-1.625.406-.406.968-.61 1.687-.61.677 0 1.219.204 1.625.61.406.396.61.937.61 1.625 0 .708-.209 1.26-.625 1.656-.417.386-.953.578-1.61.578-.687 0-1.239-.192-1.656-.578-.417-.396-.625-.948-.625-1.656Zm-2.297 18.312c-.677.292-1.307.438-1.891.438-.937 0-1.406-.583-1.406-1.75v-9.156h3.156v-3.297h-3.156v-3.75H379.5l-1.062 3.687-2.172 1.5v1.86h1.687v9.015c0 1.802.365 3.156 1.094 4.063.729.896 1.849 1.343 3.359 1.343 1.354 0 2.37-.234 3.047-.703v-3.25Z"/>
          <path fill="#172554" fill-rule="evenodd" d="m371.109 220-.828-2.375h-.093c-.615 1.021-1.25 1.724-1.907 2.109-.656.386-1.484.578-2.484.578-1.281 0-2.292-.479-3.031-1.437-.73-.958-1.094-2.292-1.094-4 0-1.833.5-3.193 1.5-4.078 1.01-.896 2.516-1.391 4.516-1.485l2.312-.093v-1.25c0-1.625-.703-2.438-2.109-2.438-1.042 0-2.24.407-3.594 1.219l-1.438-2.875a10.353 10.353 0 0 1 5.641-1.641c1.844 0 3.245.532 4.203 1.594.969 1.052 1.453 2.547 1.453 4.484V220h-3.047Zm-3.609-2.938c.76 0 1.365-.338 1.812-1.015.459-.688.688-1.599.688-2.735v-1.468l-1.281.062c-.948.052-1.646.323-2.094.813-.437.489-.656 1.219-.656 2.187 0 1.438.51 2.156 1.531 2.156Z" clip-rule="evenodd"/>
          <path fill="#172554" d="M355.016 209.625V220h4.187v-11.359c0-2.084-.401-3.667-1.203-4.75-.792-1.084-1.958-1.625-3.5-1.625-1.958 0-3.38 1.005-4.266 3.015h-.156c-.708-2.01-2.125-3.015-4.25-3.015-.823 0-1.599.208-2.328.625-.719.406-1.286 1.052-1.703 1.937h-.266l-.5-2.234h-3.297V220h4.157v-8.359c0-2.084.203-3.579.609-4.485.406-.906 1.057-1.359 1.953-1.359 1.281 0 1.922 1.276 1.922 3.828V220h4.187v-8.453c0-2.011.198-3.469.594-4.375.396-.917 1.052-1.375 1.969-1.375 1.26 0 1.891 1.276 1.891 3.828Zm-20.641-7.359c.51 0 1.01.078 1.5.234l-.484 4.031c-.292-.104-.672-.156-1.141-.156-1.01 0-1.786.401-2.328 1.203-.542.792-.813 1.948-.813 3.469V220h-4.156v-17.406h3.422l.469 2.718h.14c.459-1.093.959-1.874 1.5-2.343a2.8 2.8 0 0 1 1.891-.703Z"/>
          <path fill="#172554" fill-rule="evenodd" d="M322.219 217.938c1.208-1.594 1.812-3.818 1.812-6.672 0-2.761-.609-4.948-1.828-6.563-1.208-1.625-2.838-2.437-4.891-2.437-2.124 0-3.786.796-4.984 2.39-1.198 1.584-1.797 3.787-1.797 6.61 0 1.833.276 3.437.828 4.812.552 1.365 1.339 2.412 2.36 3.141 1.021.729 2.198 1.093 3.531 1.093 2.104 0 3.76-.791 4.969-2.374Zm-6.844-2.563c-.396-.927-.594-2.297-.594-4.109 0-1.823.198-3.183.594-4.078.396-.907 1.031-1.36 1.906-1.36.865 0 1.495.453 1.891 1.36.406.895.609 2.255.609 4.078 0 3.666-.833 5.5-2.5 5.5-.875 0-1.51-.464-1.906-1.391Z" clip-rule="evenodd"/>
          <path fill="#172554" d="M309.312 205.891h-2.874V220h-4.157v-14.109h-2.015v-2.079l2.015-1.25v-1.312c0-1.938.401-3.375 1.203-4.312.802-.948 2.094-1.422 3.875-1.422 1.125 0 2.172.234 3.141.703l-1.094 3.172a3.647 3.647 0 0 0-1.594-.375c-.479 0-.828.187-1.046.562-.219.375-.328.953-.328 1.734v1.282h2.874v3.297Zm-15.281 3.734V220h4.188v-11.359c0-2.084-.396-3.667-1.188-4.75-.781-1.084-1.963-1.625-3.547-1.625-.937 0-1.755.229-2.453.687-.698.448-1.234 1.073-1.609 1.875h-.266l-.5-2.234h-3.297V220h4.157v-8.359c0-2.115.208-3.615.625-4.5.416-.896 1.073-1.344 1.968-1.344.677 0 1.167.323 1.469.969.302.645.453 1.599.453 2.859ZM276.781 220v-22.844h4V220h-4Z"/>
          <path fill="#172554" fill-rule="evenodd" d="M730.438 176.312c-2.178 0-3.896-.77-5.157-2.312-1.25-1.552-1.875-3.745-1.875-6.578 0-2.875.568-5.12 1.703-6.734 1.136-1.615 2.719-2.422 4.75-2.422 1.896 0 3.391.692 4.485 2.078 1.094 1.375 1.64 3.307 1.64 5.797v2.218h-8.359c.031 1.552.349 2.709.953 3.469.604.75 1.438 1.125 2.5 1.125 1.354 0 2.74-.422 4.156-1.265v3.421c-1.333.802-2.932 1.203-4.796 1.203Zm-.61-14.843c-.594 0-1.083.317-1.469.953-.385.625-.609 1.599-.671 2.922h4.218c-.021-1.271-.213-2.235-.578-2.891-.364-.656-.864-.984-1.5-.984Z" clip-rule="evenodd"/>
          <path fill="#172554" d="M711.984 174.891c1-.959 1.5-2.287 1.5-3.985 0-.781-.119-1.463-.359-2.047a4.987 4.987 0 0 0-1.016-1.562c-.437-.458-1.198-1.016-2.281-1.672-.896-.542-1.51-.995-1.844-1.359a1.833 1.833 0 0 1-.484-1.25c0-.407.13-.75.391-1.032.27-.281.671-.422 1.203-.422.844 0 1.823.303 2.937.907l1.36-2.985c-1.365-.812-2.818-1.218-4.36-1.218-1.771 0-3.166.432-4.187 1.296-1.011.865-1.516 2.037-1.516 3.516 0 1.156.271 2.162.813 3.016.552.844 1.458 1.64 2.718 2.39.948.573 1.599 1.058 1.953 1.454.355.395.532.859.532 1.39 0 .521-.172.943-.516 1.266-.333.312-.823.468-1.469.468-.583 0-1.26-.13-2.031-.39a8.194 8.194 0 0 1-2-.984v3.609c1.125.677 2.547 1.015 4.266 1.015 1.937 0 3.401-.473 4.39-1.421Zm-25.765-9.266V176h4.187v-11.359c0-2.084-.396-3.667-1.187-4.75-.781-1.084-1.964-1.625-3.547-1.625-.938 0-1.755.229-2.453.687-.698.448-1.235 1.073-1.61 1.875h-.265l-.5-2.234h-3.297V176h4.156v-8.359c0-2.115.208-3.615.625-4.5.417-.896 1.073-1.344 1.969-1.344.677 0 1.167.323 1.469.969.302.645.453 1.599.453 2.859Z"/>
          <path fill="#172554" fill-rule="evenodd" d="m671.141 176-.829-2.375h-.093c-.615 1.021-1.25 1.724-1.907 2.109-.656.386-1.484.578-2.484.578-1.281 0-2.292-.479-3.031-1.437-.729-.958-1.094-2.292-1.094-4 0-1.833.5-3.193 1.5-4.078 1.011-.896 2.516-1.391 4.516-1.485l2.312-.093v-1.25c0-1.625-.703-2.438-2.109-2.438-1.042 0-2.24.407-3.594 1.219l-1.437-2.875a10.347 10.347 0 0 1 5.64-1.641c1.844 0 3.245.532 4.203 1.594.969 1.052 1.454 2.547 1.454 4.484V176h-3.047Zm-3.61-2.938c.761 0 1.365-.338 1.813-1.015.458-.688.687-1.599.687-2.735v-1.468l-1.281.062c-.948.052-1.646.323-2.094.813-.437.489-.656 1.219-.656 2.187 0 1.438.51 2.156 1.531 2.156Z" clip-rule="evenodd"/>
          <path fill="#172554" d="m631.656 173.766.516 2.234h3.328v-17.406h-4.203v8.344c0 2.114-.208 3.619-.625 4.515-.406.896-1.057 1.344-1.953 1.344-.677 0-1.167-.323-1.469-.969-.302-.646-.453-1.604-.453-2.875v-10.359h-4.203v11.359c0 2.115.401 3.703 1.203 4.766.802 1.062 1.984 1.593 3.547 1.593.916 0 1.729-.223 2.437-.671a4.534 4.534 0 0 0 1.657-1.875h.218Zm-13.218-.969c.583 0 1.213-.146 1.89-.438v3.25c-.677.469-1.693.703-3.047.703-1.51 0-2.63-.447-3.359-1.343-.729-.907-1.094-2.261-1.094-4.063v-9.015h-1.687v-1.86l2.171-1.5 1.063-3.687h2.656v3.75h3.157v3.297h-3.157v9.156c0 1.167.469 1.75 1.407 1.75Zm-30.204-1.891c0 1.698-.5 3.026-1.5 3.985-.989.948-2.453 1.421-4.39 1.421-1.719 0-3.141-.338-4.266-1.015v-3.609c.573.395 1.24.723 2 .984.771.26 1.448.39 2.031.39.646 0 1.136-.156 1.469-.468.344-.323.516-.745.516-1.266 0-.531-.177-.995-.532-1.39-.354-.396-1.005-.881-1.953-1.454-1.26-.75-2.166-1.546-2.718-2.39-.542-.854-.813-1.86-.813-3.016 0-1.479.505-2.651 1.516-3.516 1.021-.864 2.416-1.296 4.187-1.296 1.542 0 2.995.406 4.36 1.218l-1.36 2.985c-1.114-.604-2.093-.907-2.937-.907-.532 0-.933.141-1.203.422a1.462 1.462 0 0 0-.391 1.032c0 .468.161.885.484 1.25.334.364.948.817 1.844 1.359 1.083.656 1.844 1.214 2.281 1.672.438.458.776.979 1.016 1.562.24.584.359 1.266.359 2.047Z"/>
          <path fill="#172554" fill-rule="evenodd" d="M565.438 174c1.26 1.542 2.979 2.312 5.156 2.312 1.864 0 3.463-.401 4.797-1.203v-3.421c-1.417.843-2.802 1.265-4.157 1.265-1.062 0-1.895-.375-2.5-1.125-.604-.76-.922-1.917-.953-3.469h8.36v-2.218c0-2.49-.547-4.422-1.641-5.797-1.094-1.386-2.589-2.078-4.484-2.078-2.032 0-3.615.807-4.75 2.422-1.136 1.614-1.704 3.859-1.704 6.734 0 2.833.626 5.026 1.876 6.578Zm3.078-11.578c.385-.636.875-.953 1.468-.953.636 0 1.136.328 1.5.984.365.656.558 1.62.578 2.891h-4.218c.062-1.323.286-2.297.672-2.922Zm-15.641 13.89c-1.604 0-2.87-.791-3.797-2.374-.927-1.584-1.39-3.787-1.39-6.61 0-2.833.453-5.052 1.359-6.656.906-1.604 2.156-2.406 3.75-2.406.792 0 1.474.198 2.047.593.583.386 1.12 1.042 1.609 1.969h.25c-.125-1.583-.187-2.693-.187-3.328v-5.812h4.156V176h-3.094l-.703-2.266h-.141c-.885 1.719-2.172 2.578-3.859 2.578Zm1.344-3.515c.771 0 1.333-.349 1.687-1.047.354-.708.547-1.99.578-3.844v-.547c0-2.02-.182-3.442-.546-4.265-.355-.823-.943-1.235-1.766-1.235-.771 0-1.333.474-1.688 1.422-.343.938-.515 2.308-.515 4.11 0 1.802.177 3.156.531 4.062.354.896.927 1.344 1.719 1.344ZM526.938 174c1.26 1.542 2.979 2.312 5.156 2.312 1.864 0 3.463-.401 4.797-1.203v-3.421c-1.417.843-2.802 1.265-4.157 1.265-1.062 0-1.895-.375-2.5-1.125-.604-.76-.922-1.917-.953-3.469h8.36v-2.218c0-2.49-.547-4.422-1.641-5.797-1.094-1.386-2.589-2.078-4.484-2.078-2.032 0-3.615.807-4.75 2.422-1.136 1.614-1.704 3.859-1.704 6.734 0 2.833.626 5.026 1.876 6.578Zm3.078-11.578c.385-.636.875-.953 1.468-.953.636 0 1.136.328 1.5.984.365.656.558 1.62.578 2.891h-4.218c.062-1.323.286-2.297.672-2.922Z" clip-rule="evenodd"/>
          <path fill="#172554" d="M522.172 176h-4.156v-24.312h4.156V176Z"/>
          <path fill="#172554" fill-rule="evenodd" d="m510.781 173.625.828 2.375h3.047v-11.688c0-1.937-.484-3.432-1.453-4.484-.958-1.062-2.359-1.594-4.203-1.594-2.031 0-3.911.547-5.641 1.641l1.438 2.875c1.354-.812 2.552-1.219 3.594-1.219 1.406 0 2.109.813 2.109 2.438v1.25l-2.312.093c-2 .094-3.506.589-4.516 1.485-1 .885-1.5 2.245-1.5 4.078 0 1.708.364 3.042 1.094 4 .739.958 1.75 1.437 3.031 1.437 1 0 1.828-.192 2.484-.578.657-.385 1.292-1.088 1.907-2.109h.093Zm-.969-1.578c-.447.677-1.052 1.015-1.812 1.015-1.021 0-1.531-.718-1.531-2.156 0-.968.219-1.698.656-2.187.448-.49 1.146-.761 2.094-.813l1.281-.062v1.468c0 1.136-.229 2.047-.688 2.735Z" clip-rule="evenodd"/>
          <path fill="#172554" d="M495.531 176v-10.375c0-1.26-.151-2.214-.453-2.859-.302-.646-.792-.969-1.469-.969-.895 0-1.552.448-1.968 1.344-.417.885-.625 2.385-.625 4.5V176h-4.157v-17.406h3.297l.5 2.234h.266c.375-.802.911-1.427 1.609-1.875.698-.458 1.516-.687 2.453-.687 1.584 0 2.766.541 3.547 1.625.792 1.083 1.188 2.666 1.188 4.75V176h-4.188Z"/>
          <path fill="#172554" fill-rule="evenodd" d="M482.125 173.938c1.208-1.594 1.813-3.818 1.813-6.672 0-2.761-.61-4.948-1.829-6.563-1.208-1.625-2.838-2.437-4.89-2.437-2.125 0-3.787.796-4.985 2.39-1.198 1.584-1.796 3.787-1.796 6.61 0 1.833.276 3.437.828 4.812.552 1.365 1.338 2.412 2.359 3.141 1.021.729 2.198 1.093 3.531 1.093 2.104 0 3.761-.791 4.969-2.374Zm-6.844-2.563c-.396-.927-.593-2.297-.593-4.109 0-1.823.197-3.183.593-4.078.396-.907 1.031-1.36 1.907-1.36.864 0 1.494.453 1.89 1.36.406.895.61 2.255.61 4.078 0 3.666-.834 5.5-2.5 5.5-.876 0-1.511-.464-1.907-1.391Z" clip-rule="evenodd"/>
          <path fill="#172554" d="M467.484 176h-4.156v-17.406h4.156V176Zm-4.328-21.953c0-.688.198-1.229.594-1.625.406-.406.969-.61 1.688-.61.677 0 1.218.204 1.624.61.407.396.61.937.61 1.625 0 .708-.208 1.26-.625 1.656-.417.386-.953.578-1.609.578-.688 0-1.24-.192-1.657-.578-.416-.396-.625-.948-.625-1.656Zm-2.297 18.312c-.677.292-1.307.438-1.89.438-.938 0-1.407-.583-1.407-1.75v-9.156h3.157v-3.297h-3.157v-3.75h-2.656l-1.062 3.687-2.172 1.5v1.86h1.687v9.015c0 1.802.365 3.156 1.094 4.063.729.896 1.849 1.343 3.359 1.343 1.355 0 2.37-.234 3.047-.703v-3.25Z"/>
          <path fill="#172554" fill-rule="evenodd" d="m446.516 176-.828-2.375h-.094c-.615 1.021-1.25 1.724-1.906 2.109-.657.386-1.485.578-2.485.578-1.281 0-2.292-.479-3.031-1.437-.729-.958-1.094-2.292-1.094-4 0-1.833.5-3.193 1.5-4.078 1.011-.896 2.516-1.391 4.516-1.485l2.312-.093v-1.25c0-1.625-.703-2.438-2.109-2.438-1.042 0-2.24.407-3.594 1.219l-1.437-2.875a10.347 10.347 0 0 1 5.64-1.641c1.844 0 3.245.532 4.203 1.594.969 1.052 1.453 2.547 1.453 4.484V176h-3.046Zm-3.61-2.938c.761 0 1.365-.338 1.813-1.015.458-.688.687-1.599.687-2.735v-1.468l-1.281.062c-.948.052-1.646.323-2.094.813-.437.489-.656 1.219-.656 2.187 0 1.438.51 2.156 1.531 2.156Z" clip-rule="evenodd"/>
          <path fill="#172554" d="M429.016 176h5.187v-22.844h-3.906v12.469c0 1.51.099 2.813.297 3.906h-.172l-7-16.375h-5.219V176h3.938v-12.484c0-1.448-.131-2.802-.391-4.063h.203L429.016 176Zm-26.516 0v-10.375c0-1.26-.151-2.214-.453-2.859-.302-.646-.792-.969-1.469-.969-.896 0-1.552.448-1.969 1.344-.416.885-.625 2.385-.625 4.5V176h-4.156v-17.406h3.297l.5 2.234h.266c.375-.802.911-1.427 1.609-1.875.698-.458 1.516-.687 2.453-.687 1.583 0 2.766.541 3.547 1.625.792 1.083 1.188 2.666 1.188 4.75V176H402.5Z"/>
          <path fill="#172554" fill-rule="evenodd" d="M389.094 173.938c1.208-1.594 1.812-3.818 1.812-6.672 0-2.761-.609-4.948-1.828-6.563-1.208-1.625-2.838-2.437-4.89-2.437-2.126 0-3.787.796-4.985 2.39-1.198 1.584-1.797 3.787-1.797 6.61 0 1.833.276 3.437.828 4.812.552 1.365 1.339 2.412 2.36 3.141 1.021.729 2.198 1.093 3.531 1.093 2.104 0 3.76-.791 4.969-2.374Zm-6.844-2.563c-.396-.927-.594-2.297-.594-4.109 0-1.823.198-3.183.594-4.078.396-.907 1.031-1.36 1.906-1.36.865 0 1.495.453 1.891 1.36.406.895.609 2.255.609 4.078 0 3.666-.833 5.5-2.5 5.5-.875 0-1.51-.464-1.906-1.391Z" clip-rule="evenodd"/>
          <path fill="#172554" d="M374.453 176h-4.156v-17.406h4.156V176Zm-4.328-21.953c0-.688.198-1.229.594-1.625.406-.406.969-.61 1.687-.61.677 0 1.219.204 1.625.61.407.396.61.937.61 1.625 0 .708-.209 1.26-.625 1.656-.417.386-.954.578-1.61.578-.687 0-1.239-.192-1.656-.578-.417-.396-.625-.948-.625-1.656Zm-2.297 18.312c-.677.292-1.307.438-1.89.438-.938 0-1.407-.583-1.407-1.75v-9.156h3.157v-3.297h-3.157v-3.75h-2.656l-1.063 3.687-2.171 1.5v1.86h1.687v9.015c0 1.802.365 3.156 1.094 4.063.729.896 1.849 1.343 3.359 1.343 1.354 0 2.37-.234 3.047-.703v-3.25Z"/>
          <path fill="#172554" fill-rule="evenodd" d="m353.484 176-.828-2.375h-.094c-.614 1.021-1.25 1.724-1.906 2.109-.656.386-1.484.578-2.484.578-1.281 0-2.292-.479-3.031-1.437-.73-.958-1.094-2.292-1.094-4 0-1.833.5-3.193 1.5-4.078 1.01-.896 2.515-1.391 4.515-1.485l2.313-.093v-1.25c0-1.625-.703-2.438-2.109-2.438-1.042 0-2.24.407-3.594 1.219l-1.438-2.875a10.353 10.353 0 0 1 5.641-1.641c1.844 0 3.245.532 4.203 1.594.969 1.052 1.453 2.547 1.453 4.484V176h-3.047Zm-3.609-2.938c.76 0 1.365-.338 1.813-1.015.458-.688.687-1.599.687-2.735v-1.468l-1.281.062c-.948.052-1.646.323-2.094.813-.438.489-.656 1.219-.656 2.187 0 1.438.51 2.156 1.531 2.156Z" clip-rule="evenodd"/>
          <path fill="#172554" d="M343.094 158.5a4.916 4.916 0 0 0-1.5-.234 2.8 2.8 0 0 0-1.891.703c-.542.469-1.042 1.25-1.5 2.343h-.141l-.468-2.718h-3.422V176h4.156v-8.953c0-1.521.271-2.677.813-3.469.541-.802 1.317-1.203 2.328-1.203.469 0 .849.052 1.14.156l.485-4.031Z"/>
          <path fill="#172554" fill-rule="evenodd" d="M325.875 176.312c-2.177 0-3.896-.77-5.156-2.312-1.25-1.552-1.875-3.745-1.875-6.578 0-2.875.567-5.12 1.703-6.734 1.135-1.615 2.719-2.422 4.75-2.422 1.896 0 3.391.692 4.484 2.078 1.094 1.375 1.641 3.307 1.641 5.797v2.218h-8.36c.032 1.552.349 2.709.954 3.469.604.75 1.437 1.125 2.5 1.125 1.354 0 2.739-.422 4.156-1.265v3.421c-1.333.802-2.932 1.203-4.797 1.203Zm-.609-14.843c-.594 0-1.084.317-1.469.953-.386.625-.609 1.599-.672 2.922h4.219c-.021-1.271-.214-2.235-.578-2.891-.365-.656-.865-.984-1.5-.984Z" clip-rule="evenodd"/>
          <path fill="#172554" d="M323.125 156.609v-.421c.427-.553.922-1.339 1.484-2.36.563-1.021.964-1.802 1.203-2.344h4.969v.328c-.25.448-.87 1.172-1.859 2.172-.99.99-1.948 1.865-2.875 2.625h-2.922Z"/>
          <path fill="#172554" fill-rule="evenodd" d="M304.359 173.938c.927 1.583 2.193 2.374 3.797 2.374 1.688 0 2.974-.859 3.86-2.578h.14l.703 2.266h3.094v-24.312h-4.156v5.812c0 .635.062 1.745.187 3.328h-.25c-.489-.927-1.026-1.583-1.609-1.969-.573-.395-1.255-.593-2.047-.593-1.594 0-2.844.802-3.75 2.406-.906 1.604-1.359 3.823-1.359 6.656 0 2.823.463 5.026 1.39 6.61Zm6.829-2.188c-.355.698-.917 1.047-1.688 1.047-.792 0-1.365-.448-1.719-1.344-.354-.906-.531-2.26-.531-4.062 0-1.802.172-3.172.516-4.11.354-.948.916-1.422 1.687-1.422.823 0 1.412.412 1.766 1.235.364.823.547 2.245.547 4.265v.547c-.032 1.854-.224 3.136-.578 3.844Zm-15.907 4.562c-2.177 0-3.896-.77-5.156-2.312-1.25-1.552-1.875-3.745-1.875-6.578 0-2.875.568-5.12 1.703-6.734 1.136-1.615 2.719-2.422 4.75-2.422 1.896 0 3.391.692 4.485 2.078 1.093 1.375 1.64 3.307 1.64 5.797v2.218h-8.359c.031 1.552.349 2.709.953 3.469.604.75 1.437 1.125 2.5 1.125 1.354 0 2.739-.422 4.156-1.265v3.421c-1.333.802-2.932 1.203-4.797 1.203Zm-.609-14.843c-.594 0-1.083.317-1.469.953-.385.625-.609 1.599-.672 2.922h4.219c-.021-1.271-.214-2.235-.578-2.891-.365-.656-.865-.984-1.5-.984Z" clip-rule="evenodd"/>
          <path fill="#172554" d="M292.531 156.609v-.421c.427-.553.922-1.339 1.485-2.36.562-1.021.963-1.802 1.203-2.344h4.969v.328c-.25.448-.87 1.172-1.86 2.172a39.42 39.42 0 0 1-2.875 2.625h-2.922ZM276.016 176h4.218v-9.156h5.61v-3.672h-5.61v-6.344h6.016v-3.672h-10.234V176Z"/>
        </g>
      </g>
    </g>
  </g>
</svg>
